<svg width="43" height="13" viewBox="0 0 43 13" fill="none" xmlns="http://www.w3.org/2000/svg">
<path d="M1.088 8.528C0.842667 7.84533 0.72 7.136 0.72 6.4C0.72 5.664 0.842667 4.95467 1.088 4.272C1.344 3.58933 1.70667 2.976 2.176 2.432C2.64533 1.87733 3.25867 1.43467 4.016 1.104C4.77333 0.773333 5.62667 0.608 6.576 0.608C7.52533 0.608 8.37867 0.773333 9.136 1.104C9.89333 1.43467 10.5067 1.87733 10.976 2.432C11.4453 2.976 11.8027 3.58933 12.048 4.272C12.304 4.95467 12.432 5.664 12.432 6.4C12.432 7.136 12.304 7.84533 12.048 8.528C11.8027 9.21067 11.4453 9.82933 10.976 10.384C10.5067 10.928 9.89333 11.3653 9.136 11.696C8.37867 12.0267 7.52533 12.192 6.576 12.192C5.62667 12.192 4.77333 12.0267 4.016 11.696C3.25867 11.3653 2.64533 10.928 2.176 10.384C1.70667 9.82933 1.344 9.21067 1.088 8.528ZM10.784 8.08C10.976 7.54667 11.072 6.98667 11.072 6.4C11.072 5.81333 10.976 5.25333 10.784 4.72C10.6027 4.18667 10.3307 3.70667 9.968 3.28C9.616 2.85333 9.14667 2.51733 8.56 2.272C7.97333 2.016 7.312 1.888 6.576 1.888C5.84 1.888 5.17867 2.016 4.592 2.272C4.00533 2.51733 3.53067 2.85333 3.168 3.28C2.816 3.70667 2.544 4.18667 2.352 4.72C2.17067 5.25333 2.08 5.81333 2.08 6.4C2.08 6.98667 2.17067 7.54667 2.352 8.08C2.544 8.61333 2.816 9.09333 3.168 9.52C3.53067 9.94667 4.00533 10.288 4.592 10.544C5.17867 10.7893 5.84 10.912 6.576 10.912C7.312 10.912 7.97333 10.7893 8.56 10.544C9.14667 10.288 9.616 9.94667 9.968 9.52C10.3307 9.09333 10.6027 8.61333 10.784 8.08ZM19.6046 12H18.3246V4.32H19.6046V7.568H24.0526V4.32H25.3326V12H24.0526V8.752H19.6046V12ZM33.9396 10.4C33.9396 10.7947 34.137 10.992 34.5316 10.992C34.7023 10.992 34.8996 10.9547 35.1236 10.88V11.92C34.8036 12.0373 34.4836 12.096 34.1636 12.096C33.4276 12.096 32.9583 11.7867 32.7556 11.168C31.9343 11.8507 30.937 12.192 29.7636 12.192C29.017 12.192 28.377 11.9947 27.8436 11.6C27.321 11.1947 27.0596 10.6133 27.0596 9.856C27.0596 8.94933 27.3956 8.29333 28.0676 7.888C28.7503 7.472 29.5716 7.264 30.5316 7.264C31.2356 7.264 31.945 7.344 32.6596 7.504V7.232C32.6596 6.64533 32.4676 6.18133 32.0836 5.84C31.6996 5.488 31.161 5.312 30.4676 5.312C29.497 5.312 28.5636 5.504 27.6676 5.888V4.64C28.6703 4.29867 29.6463 4.128 30.5956 4.128C31.641 4.128 32.457 4.41067 33.0436 4.976C33.641 5.53067 33.9396 6.336 33.9396 7.392V10.4ZM28.3716 9.792C28.3716 10.2187 28.5316 10.544 28.8516 10.768C29.1823 10.9813 29.577 11.088 30.0356 11.088C31.0916 11.088 31.9663 10.7147 32.6596 9.968V8.56C31.9343 8.41067 31.2836 8.336 30.7076 8.336C30.057 8.336 29.5023 8.45333 29.0436 8.688C28.5956 8.912 28.3716 9.28 28.3716 9.792ZM35.9685 8.192C35.9685 7.52 36.0912 6.91733 36.3365 6.384C36.5818 5.85067 36.9018 5.424 37.2965 5.104C37.7018 4.784 38.1445 4.544 38.6245 4.384C39.1152 4.21333 39.6165 4.128 40.1285 4.128C41.0778 4.128 41.8672 4.336 42.4965 4.752V6C41.9098 5.54133 41.1738 5.312 40.2885 5.312C39.4565 5.312 38.7418 5.552 38.1445 6.032C37.5472 6.512 37.2485 7.22133 37.2485 8.16C37.2485 9.088 37.5418 9.79733 38.1285 10.288C38.7258 10.768 39.4352 11.008 40.2565 11.008C41.1098 11.008 41.8832 10.8 42.5765 10.384V11.664C41.8512 12.016 41.0192 12.192 40.0805 12.192C38.9712 12.192 38.0058 11.8453 37.1845 11.152C36.3738 10.4587 35.9685 9.472 35.9685 8.192Z" fill="#666666"/>
</svg>
